<?xml version="1.0" encoding="UTF-8" standalone="no" ?>
<!DOCTYPE svg PUBLIC "-//W3C//DTD SVG 1.1//EN" "http://www.w3.org/Graphics/SVG/1.1/DTD/svg11.dtd">
<svg xmlns="http://www.w3.org/2000/svg" xmlns:xlink="http://www.w3.org/1999/xlink" version="1.1" width="320" height="240" viewBox="0 0 320 240" xml:space="preserve">
<defs>
</defs>
<g transform="matrix(1 0 0 1 99.15 68.8)"  >
<polygon style="stroke: none; stroke-width: 1; stroke-dasharray: none; stroke-linecap: butt; stroke-dashoffset: 0; stroke-linejoin: miter; stroke-miterlimit: 4; fill: rgb(192,24,24); fill-rule: nonzero; opacity: 1;"  points="18.15,-25 -18.15,-41.8 -18.15,25 18.15,41.8 18.15,25.4 -3.25,15.5 -3.25,-18.5 18.15,-8.6 " />
</g>
<g transform="matrix(1 0 0 1 135.5 68.8)"  >
<polygon style="stroke: none; stroke-width: 1; stroke-dasharray: none; stroke-linecap: butt; stroke-dashoffset: 0; stroke-linejoin: miter; stroke-miterlimit: 4; fill: rgb(117,22,13); fill-rule: nonzero; opacity: 1;"  points="-18.2,-25 18.2,-41.8 18.2,25 -18.2,41.8 -18.2,25.4 3.3,15.5 3.3,-18.5 -18.2,-8.6 " />
</g>
<g transform="matrix(0.4 0 0 0.4 117.88 134.31)"  >
<g style=""   >
		<g transform="matrix(3.78 0 0 3.78 -75.15 8.45)"  >
<path style="stroke: none; stroke-width: 0.26; stroke-dasharray: none; stroke-linecap: butt; stroke-dashoffset: 0; stroke-linejoin: miter; stroke-miterlimit: 4; fill: rgb(192,24,24); fill-rule: nonzero; opacity: 1;"  transform=" translate(248.41, -244.03)" d="m -241.97091 247.22998 l -2.96333 -1.74625 l -0.21167 0.34396 c -0.66146 1.05834 -1.5875 1.5875 -2.72521 1.5875 c -1.95791 0 -3.41312 -1.48166 -3.41312 -3.41312 c 0 -1.95792 1.48166 -3.41313 3.41312 -3.41313 c 1.16417 0 2.01084 0.50271 2.72521 1.5875 l 0.21167 0.34396 l 2.96333 -1.74625 l -0.26458 -0.37042 c -1.42875 -2.06375 -3.25438 -3.0427 -5.66209 -3.0427 c -4.52437 0 -6.95854 3.43958 -6.95854 6.6675 c 0 3.22791 2.43417 6.6675 6.95854 6.6675 c 2.30188 0 4.47146 -1.16417 5.66209 -3.06917 z" stroke-linecap="round" />
</g>
		<g transform="matrix(3.78 0 0 3.78 -19.8 0.1)"  >
<path style="stroke: none; stroke-width: 0.26; stroke-dasharray: none; stroke-linecap: butt; stroke-dashoffset: 0; stroke-linejoin: miter; stroke-miterlimit: 4; fill: rgb(192,24,24); fill-rule: nonzero; opacity: 1;"  transform=" translate(233.77, -241.82)" d="m -242.12966 250.64311 h 4.07458 l 1.21709 -3.01625 h 6.11187 l 1.21709 3.01625 h 4.10104 l -7.3025 -17.64771 h -3.65125 l 0.97896 2.35479 l -6.74688 15.29292 m 8.38729 -10.68917 l 1.64042 4.15396 h -3.33375 z" stroke-linecap="round" />
</g>
		<g transform="matrix(3.78 0 0 3.78 29.85 0.2)"  >
<path style="stroke: none; stroke-width: 0.26; stroke-dasharray: none; stroke-linecap: butt; stroke-dashoffset: 0; stroke-linejoin: miter; stroke-miterlimit: 4; fill: rgb(192,24,24); fill-rule: nonzero; opacity: 1;"  transform=" translate(220.63, -241.85)" d="m -223.71466 250.66957 h 3.57188 v -7.9375 h 2.32833 v -3.33375 h -2.32833 v -1.56104 c 0 -0.68792 0.44979 -1.4023 1.29645 -1.4023 c 0.4498 0 0.74084 0.0794 1.00542 0.18521 l 0.39688 0.15875 l 1.48166 -3.25437 l -0.39687 -0.13229 c -0.66146 -0.26459 -1.5875 -0.37042 -2.24896 -0.37042 c -1.61396 0 -2.96333 0.52917 -3.86292 1.53458 c -0.79375 0.87313 -1.24354 2.09021 -1.24354 3.43959 v 1.42875 h -1.5875 v 3.33375 h 1.5875 z" stroke-linecap="round" />
</g>
		<g transform="matrix(1 0 0 1 -134.24 -0.09)"  >
<polygon style="stroke: none; stroke-width: 1; stroke-dasharray: none; stroke-linecap: butt; stroke-dashoffset: 0; stroke-linejoin: miter; stroke-miterlimit: 4; fill: rgb(192,24,24); fill-rule: nonzero; opacity: 1;"  points="14.25,-4.85 14.25,33.55 28.95,33.55 28.95,-33.55 0.05,-11.75 -28.95,-33.55 -28.95,33.45 -14.25,33.55 -14.25,-4.85 0.05,5.75 " />
</g>
		<g transform="matrix(3.78 0 0 3.78 70.25 8.35)"  >
<path style="stroke: none; stroke-width: 0.26; stroke-dasharray: none; stroke-linecap: butt; stroke-dashoffset: 0; stroke-linejoin: miter; stroke-miterlimit: 4; fill: rgb(192,24,24); fill-rule: nonzero; opacity: 1;"  transform=" translate(209.94, -244)" d="m -209.74466 237.36103 c -4.49792 0 -6.93208 3.41312 -6.93208 6.64104 c 0 3.22791 2.43416 6.64104 6.93208 6.64104 c 2.06375 -0.0265 3.99521 -0.9525 5.50333 -2.67229 l -2.91041 -1.5875 c -0.74084 0.76729 -1.66688 1.16416 -2.67229 1.16416 c -1.48167 0 -2.77813 -0.97895 -3.12209 -2.27541 h 9.73667 v -0.87313 c 0.0265 -4.84187 -3.81 -7.01146 -6.53521 -7.03791 z m -3.12208 5.02708 c 0.47625 -1.21708 1.48166 -1.905 2.77812 -1.905 c 1.32292 0 2.35479 0.68792 2.88396 1.93146 z" stroke-linecap="round" />
</g>
		<g transform="matrix(3.78 0 0 3.78 125.55 8.45)"  >
<path style="stroke: none; stroke-width: 0.26; stroke-dasharray: none; stroke-linecap: butt; stroke-dashoffset: 0; stroke-linejoin: miter; stroke-miterlimit: 4; fill: rgb(192,24,24); fill-rule: nonzero; opacity: 1;"  transform=" translate(195.31, -244.03)" d="m -195.1132 237.38748 c -4.49792 0 -6.93208 3.41313 -6.93208 6.64105 c 0 3.22791 2.43416 6.64104 6.93208 6.64104 c 2.06375 -0.0265 3.99521 -0.9525 5.50333 -2.67229 l -2.91041 -1.5875 c -0.74084 0.76729 -1.66688 1.16416 -2.6723 1.16416 c -1.48166 0 -2.77812 -0.97896 -3.12208 -2.27541 h 9.73667 v -0.87313 c 0.0265 -4.84187 -3.81 -7.03792 -6.53521 -7.03792 z m -3.12208 5.00063 c 0.47625 -1.21708 1.48166 -1.93146 2.77812 -1.905 c 1.32292 0 2.35479 0.68792 2.88396 1.93146 z" stroke-linecap="round" />
</g>
		<g transform="matrix(3.78 0 0 3.78 152.15 -15.4)"  >
<path style="stroke: none; stroke-width: 0.26; stroke-dasharray: none; stroke-linecap: butt; stroke-dashoffset: 0; stroke-linejoin: miter; stroke-miterlimit: 4; fill: rgb(192,24,24); fill-rule: nonzero; opacity: 1;"  transform=" translate(188.27, -237.72)" d="m -189.02778 236.77894 h 1.50812 v 0.29104 h -0.60854 v 1.5875 h -0.3175 v -1.5875 h -0.58208 z" stroke-linecap="round" />
</g>
		<g transform="matrix(3.78 0 0 3.78 159.5 -15.4)"  >
<path style="stroke: none; stroke-width: 0.26; stroke-dasharray: none; stroke-linecap: butt; stroke-dashoffset: 0; stroke-linejoin: miter; stroke-miterlimit: 4; fill: rgb(192,24,24); fill-rule: nonzero; opacity: 1;"  transform=" translate(186.33, -237.72)" d="m -187.28153 236.77894 h 0.44979 l 0.52916 1.45521 l 0.50271 -1.45521 h 0.44979 v 1.87854 h -0.3175 v -1.4552 l -0.52916 1.4552 h -0.26459 l -0.52916 -1.4552 v 1.4552 h -0.3175 v -1.87854 z" stroke-linecap="round" />
</g>
</g>
</g>
</svg>
