<svg width="160" height="160" xmlns="http://www.w3.org/2000/svg" xml:space="preserve" version="1.1">

 <g>
  <title>Layer 1</title>
  <g id="svg_24">
   <g id="svg_5" transform="matrix(0.4, 0, 0, 0.4, 117.88, 134.31)">
    <g id="svg_6">
     <g id="svg_7" transform="matrix(3.78, 0, 0, 3.78, -75.15, 8.45)">
      <path id="svg_8" fill-rule=" nonzero" fill=" rgb(192,24,24)" stroke-miterlimit="4" stroke-linejoin=" miter" stroke-dashoffset="0" stroke-dasharray=" none" stroke-width="0.26" stroke=" none" stroke-linecap=" butt" d="m-18.0318,-3.41377l-2.96333,-1.74625l-0.21167,0.34396c-0.66146,1.05834 -1.5875,1.5875 -2.72521,1.5875c-1.95791,0 -3.41312,-1.48166 -3.41312,-3.41312c0,-1.95792 1.48166,-3.41313 3.41312,-3.41313c1.16417,0 2.01084,0.50271 2.72521,1.5875l0.21167,0.34396l2.96333,-1.74625l-0.26458,-0.37042c-1.42875,-2.06375 -3.25438,-3.0427 -5.66209,-3.0427c-4.52437,0 -6.95854,3.43958 -6.95854,6.6675c0,3.22791 2.43417,6.6675 6.95854,6.6675c2.30188,0 4.47146,-1.16417 5.66209,-3.06917l0.26458,-0.39688z"/>
     </g>
     <g id="svg_9" transform="matrix(3.78, 0, 0, 3.78, -19.8, 0.1)">
      <path id="svg_10" fill-rule=" nonzero" fill=" rgb(192,24,24)" stroke-miterlimit="4" stroke-linejoin=" miter" stroke-dashoffset="0" stroke-dasharray=" none" stroke-width="0.26" stroke=" none" stroke-linecap=" butt" d="m-32.83055,2.20935l4.07458,0l1.21709,-3.01625l6.11187,0l1.21709,3.01625l4.10104,0l-7.3025,-17.64771l-3.65125,0l0.97896,2.35479l-6.74688,15.29292m8.38729,-10.68917l1.64042,4.15396l-3.33375,0l1.69333,-4.15396z"/>
     </g>
     <g id="svg_11" transform="matrix(3.78, 0, 0, 3.78, 29.85, 0.2)">
      <path id="svg_12" fill-rule=" nonzero" fill=" rgb(192,24,24)" stroke-miterlimit="4" stroke-linejoin=" miter" stroke-dashoffset="0" stroke-dasharray=" none" stroke-width="0.26" stroke=" none" stroke-linecap=" butt" d="m-27.55555,2.20581l3.57188,0l0,-7.9375l2.32833,0l0,-3.33375l-2.32833,0l0,-1.56104c0,-0.68792 0.44979,-1.4023 1.29645,-1.4023c0.4498,0 0.74084,0.0794 1.00542,0.18521l0.39688,0.15875l1.48166,-3.25437l-0.39687,-0.13229c-0.66146,-0.26459 -1.5875,-0.37042 -2.24896,-0.37042c-1.61396,0 -2.96333,0.52917 -3.86292,1.53458c-0.79375,0.87313 -1.24354,2.09021 -1.24354,3.43959l0,1.42875l-1.5875,0l0,3.33375l1.5875,0l0,7.91104z"/>
     </g>
     <g id="svg_13" transform="matrix(1, 0, 0, 1, -134.24, -0.09)">
      <polygon id="svg_14" fill-rule=" nonzero" fill=" rgb(192,24,24)" stroke-miterlimit="4" stroke-linejoin=" miter" stroke-dashoffset="0" stroke-linecap=" butt" stroke-dasharray=" none" stroke=" none" points="-78.24998474121094,-29.849998474121094 -78.24998474121094,8.549999237060547 -63.54998779296875,8.549999237060547 -63.54998779296875,-58.55000305175781 -92.44998168945312,-36.75 -121.44998168945312,-58.55000305175781 -121.44998168945312,8.450000762939453 -106.74998474121094,8.549999237060547 -106.74998474121094,-29.849998474121094 -92.44998168945312,-19.25 "/>
     </g>
     <g id="svg_15" transform="matrix(3.78, 0, 0, 3.78, 70.25, 8.35)">
      <path id="svg_16" fill-rule=" nonzero" fill=" rgb(192,24,24)" stroke-miterlimit="4" stroke-linejoin=" miter" stroke-dashoffset="0" stroke-dasharray=" none" stroke-width="0.26" stroke=" none" stroke-linecap=" butt" d="m-24.27555,-13.25273c-4.49792,0 -6.93208,3.41312 -6.93208,6.64104c0,3.22791 2.43416,6.64104 6.93208,6.64104c2.06375,-0.0265 3.99521,-0.9525 5.50333,-2.67229l-2.91041,-1.5875c-0.74084,0.76729 -1.66688,1.16416 -2.67229,1.16416c-1.48167,0 -2.77813,-0.97895 -3.12209,-2.27541l9.73667,0l0,-0.87313c0.0265,-4.84187 -3.81,-7.01146 -6.53521,-7.03791zm-3.12208,5.02708c0.47625,-1.21708 1.48166,-1.905 2.77812,-1.905c1.32292,0 2.35479,0.68792 2.88396,1.93146l-5.66208,-0.02646z"/>
     </g>
     <g id="svg_17" transform="matrix(3.78, 0, 0, 3.78, 125.55, 8.45)">
      <path id="svg_18" fill-rule=" nonzero" fill=" rgb(192,24,24)" stroke-miterlimit="4" stroke-linejoin=" miter" stroke-dashoffset="0" stroke-dasharray=" none" stroke-width="0.26" stroke=" none" stroke-linecap=" butt" d="m-24.2741,-13.25627c-4.49792,0 -6.93208,3.41313 -6.93208,6.64105c0,3.22791 2.43416,6.64104 6.93208,6.64104c2.06375,-0.0265 3.99521,-0.9525 5.50333,-2.67229l-2.91041,-1.5875c-0.74084,0.76729 -1.66688,1.16416 -2.6723,1.16416c-1.48166,0 -2.77812,-0.97896 -3.12208,-2.27541l9.73667,0l0,-0.87313c0.0265,-4.84187 -3.81,-7.03792 -6.53521,-7.03792zm-3.12208,5.00063c0.47625,-1.21708 1.48166,-1.93146 2.77812,-1.905c1.32292,0 2.35479,0.68792 2.88396,1.93146l-5.66208,-0.02646z"/>
     </g>
     <g id="svg_19" transform="matrix(3.78, 0, 0, 3.78, 152.15, -15.4)">
      <path id="svg_20" fill-rule=" nonzero" fill=" rgb(192,24,24)" stroke-miterlimit="4" stroke-linejoin=" miter" stroke-dashoffset="0" stroke-dasharray=" none" stroke-width="0.26" stroke=" none" stroke-linecap=" butt" d="m-25.22867,-7.55482l1.50812,0l0,0.29104l-0.60854,0l0,1.5875l-0.3175,0l0,-1.5875l-0.58208,0l0,-0.29104z"/>
     </g>
     <g id="svg_21" transform="matrix(3.78, 0, 0, 3.78, 159.5, -15.4)">
      <path id="svg_22" fill-rule=" nonzero" fill=" rgb(192,24,24)" stroke-miterlimit="4" stroke-linejoin=" miter" stroke-dashoffset="0" stroke-dasharray=" none" stroke-width="0.26" stroke=" none" stroke-linecap=" butt" d="m-25.42242,-7.55482l0.44979,0l0.52916,1.45521l0.50271,-1.45521l0.44979,0l0,1.87854l-0.3175,0l0,-1.4552l-0.52916,1.4552l-0.26459,0l-0.52916,-1.4552l0,1.4552l-0.3175,0l0,-1.87854l0.02646,0z"/>
     </g>
    </g>
   </g>
   <g id="svg_23">
    <g id="svg_1" transform="matrix(1, 0, 0, 1, 99.15, 68.8)">
     <polygon id="svg_2" fill-rule=" nonzero" fill=" rgb(192,24,24)" stroke-miterlimit="4" stroke-linejoin=" miter" stroke-dashoffset="0" stroke-linecap=" butt" stroke-dasharray=" none" stroke=" none" points="-18.850000381469727,-35 -55.150001525878906,-51.79999923706055 -55.150001525878906,15 -18.850000381469727,31.799999237060547 -18.850000381469727,15.399999618530273 -40.25,5.5 -40.25,-28.5 -18.850000381469727,-18.600000381469727 "/>
    </g>
    <g id="svg_3" transform="matrix(1, 0, 0, 1, 135.5, 68.8)">
     <polygon id="svg_4" fill-rule=" nonzero" fill=" rgb(117,22,13)" stroke-miterlimit="4" stroke-linejoin=" miter" stroke-dashoffset="0" stroke-linecap=" butt" stroke-dasharray=" none" stroke=" none" points="-55.19999694824219,-35 -18.799999237060547,-51.79999923706055 -18.799999237060547,15 -55.19999694824219,31.799999237060547 -55.19999694824219,15.399999618530273 -33.70000076293945,5.5 -33.70000076293945,-28.5 -55.19999694824219,-18.600000381469727 "/>
    </g>
   </g>
  </g>
 </g>
</svg>